<?xml version="1.0" standalone="no"?>
<!DOCTYPE svg PUBLIC "-//W3C//DTD SVG 20010904//EN"
 "http://www.w3.org/TR/2001/REC-SVG-20010904/DTD/svg10.dtd">
<svg version="1.0" xmlns="http://www.w3.org/2000/svg"
 width="512.000000pt" height="512.000000pt" viewBox="0 0 512.000000 512.000000"
 preserveAspectRatio="xMidYMid meet">

<g transform="translate(0.000000,512.000000) scale(0.100000,-0.100000)"
fill="#000000" stroke="none">
<path d="M2305 5114 c-22 -2 -96 -8 -165 -14 -847 -72 -1490 -371 -1619 -752
-21 -62 -21 -65 -21 -1788 0 -1723 0 -1726 21 -1788 116 -343 649 -622 1389
-726 228 -32 363 -41 650 -41 367 0 619 25 925 89 l120 26 678 0 677 0 0 1035
0 1035 -170 0 -170 0 0 1048 c0 1036 0 1049 -21 1110 -126 373 -716 655 -1564
748 -131 14 -639 27 -730 18z m32 -170 c-3 -3 -12 -4 -19 -1 -8 3 -5 6 6 6 11
1 17 -2 13 -5z m470 0 c-3 -3 -12 -4 -19 -1 -8 3 -5 6 6 6 11 1 17 -2 13 -5z
m-624 -11 c-7 -2 -19 -2 -25 0 -7 3 -2 5 12 5 14 0 19 -2 13 -5z m780 0 c-7
-2 -19 -2 -25 0 -7 3 -2 5 12 5 14 0 19 -2 13 -5z m-2296 -725 c-3 -8 -6 -5
-6 6 -1 11 2 17 5 13 3 -3 4 -12 1 -19z m3790 0 c-3 -8 -6 -5 -6 6 -1 11 2 17
5 13 3 -3 4 -12 1 -19z m-3682 -228 c10 -11 16 -20 13 -20 -3 0 -13 9 -23 20
-10 11 -16 20 -13 20 3 0 13 -9 23 -20z m3595 17 c0 -2 -10 -12 -22 -23 l-23
-19 19 23 c18 21 26 27 26 19z m-3539 -74 c13 -16 12 -17 -3 -4 -10 7 -18 15
-18 17 0 8 8 3 21 -13z m3479 13 c0 -2 -8 -10 -17 -17 -16 -13 -17 -12 -4 4
13 16 21 21 21 13z m-1862 -463 c-16 -2 -40 -2 -55 0 -16 2 -3 4 27 4 30 0 43
-2 28 -4z m280 0 c-16 -2 -40 -2 -55 0 -16 2 -3 4 27 4 30 0 43 -2 28 -4z
m1300 -1629 l22 -6 0 -279 0 -279 280 0 280 0 5 -22 c3 -13 5 -68 3 -123 l-3
-100 -280 -5 -280 -5 -3 -275 c-2 -204 -5 -276 -15 -282 -14 -9 -182 -10 -214
-2 l-23 6 0 279 0 279 -279 0 -278 0 -7 31 c-8 40 -8 133 0 182 l7 37 278 0
279 0 0 279 c0 258 1 280 18 284 26 7 184 8 210 1z m269 -99 c23 -14 43 -29
43 -33 0 -4 -14 -16 -30 -27 -17 -11 -58 -57 -91 -102 -33 -46 -78 -97 -100
-114 l-39 -31 0 63 c0 57 4 67 46 132 40 60 109 137 123 137 2 0 24 -11 48
-25z m-642 -40 c113 -84 115 -87 115 -172 l0 -74 -41 41 c-23 23 -68 59 -100
81 -56 37 -129 105 -129 118 1 5 68 57 78 60 1 1 36 -24 77 -54z m753 -122
c-19 -21 -58 -72 -86 -114 -28 -42 -73 -95 -100 -117 -43 -36 -56 -42 -96 -42
l-46 0 0 39 c0 34 5 42 33 60 44 27 96 84 145 158 23 33 58 75 79 92 l38 31
34 -35 35 -35 -36 -37z m-906 51 c18 -20 64 -57 102 -84 39 -26 92 -70 119
-98 42 -45 47 -56 47 -97 0 -44 -1 -45 -31 -45 -26 0 -44 12 -93 63 -33 34
-96 87 -140 117 -43 30 -85 67 -94 82 -15 25 -14 28 12 62 15 20 31 36 37 36
5 0 24 -16 41 -36z m1003 -91 c29 -44 31 -56 9 -74 -9 -8 -41 -46 -70 -86
l-54 -73 -77 0 -77 0 41 43 c22 23 55 65 73 92 35 53 109 135 122 135 4 0 19
-17 33 -37z m-1108 -14 c15 -17 63 -55 107 -83 68 -44 136 -109 136 -130 0 -3
-29 -6 -64 -6 -59 0 -68 3 -137 49 -41 27 -86 65 -102 85 l-28 36 27 40 c15
22 29 40 31 40 2 0 16 -14 30 -31z m223 -534 c0 -3 -18 -21 -39 -40 -21 -20
-60 -67 -86 -105 -44 -65 -97 -121 -113 -120 -4 1 -20 19 -35 41 l-28 41 33
38 c18 21 50 63 71 94 l38 56 79 0 c44 0 80 -2 80 -5z m150 -32 c0 -33 -7 -44
-56 -87 -30 -26 -75 -79 -100 -117 -25 -38 -64 -85 -86 -104 -44 -37 -55 -37
-97 9 l-24 26 25 20 c14 10 53 60 87 109 33 49 85 110 113 135 45 39 59 46 95
46 43 0 43 0 43 -37z m433 -18 c26 -30 78 -76 115 -102 77 -54 142 -112 142
-128 0 -6 -16 -26 -35 -45 l-35 -34 -39 38 c-21 21 -72 61 -112 90 -100 70
-159 144 -159 196 0 40 0 40 38 40 32 0 43 -7 85 -55z m204 11 c37 -24 84 -61
103 -80 l35 -37 -24 -44 c-13 -25 -27 -45 -32 -45 -4 0 -18 13 -32 29 -13 16
-63 57 -110 90 -80 57 -127 102 -127 122 0 5 27 9 60 9 53 0 66 -4 127 -44z
m-681 -289 c-24 -34 -60 -78 -80 -97 l-36 -34 -35 18 c-60 33 -61 41 -14 83
23 21 58 62 77 92 19 30 56 75 81 99 l46 45 3 -72 c3 -71 2 -73 -42 -134z
m513 46 c31 -19 71 -49 88 -66 36 -34 34 -42 -22 -77 l-33 -21 -53 38 c-29 21
-72 55 -96 77 l-43 39 0 75 0 76 52 -53 c28 -29 76 -68 107 -88z"/>
</g>
</svg>
